<svg width="32" height="32" viewBox="0 0 32 32" fill="none" xmlns="http://www.w3.org/2000/svg">
<path fill-rule="evenodd" clip-rule="evenodd" d="M11.6236 9.73439C11.6236 10.693 10.9253 11.4694 9.77782 11.4694C8.69835 11.4694 8 10.693 8 9.73439C8 8.75355 8.7206 8 9.82331 8C10.9253 8 11.6007 8.75355 11.6236 9.73439ZM8.09002 24V12.8387H11.5104V24H8.09002ZM13.5576 16.3988C13.5576 15.0069 13.513 13.843 13.4678 12.8387H16.4386L16.5961 14.3904H16.6639C17.1135 13.6599 18.2162 12.5874 20.0615 12.5874C22.3122 12.5874 24 14.1169 24 17.4031V24H20.5787V17.8144C20.5787 16.3759 20.0843 15.3949 18.8463 15.3949C17.9011 15.3949 17.3385 16.0572 17.0912 16.6964C17.0007 16.9242 16.9785 17.2438 16.9785 17.5632V24H13.5576V16.3988Z" fill="#616161"/>
</svg>
