<svg width="32" height="32" viewBox="0 0 32 32" fill="none" xmlns="http://www.w3.org/2000/svg">
<path fill-rule="evenodd" clip-rule="evenodd" d="M26.0415 11.1156C25.7866 10.0177 24.8817 9.20634 23.7913 9.08675C21.2132 8.79998 18.6027 8.79849 16.0037 8.79998C13.4052 8.79849 10.7947 8.79998 8.21531 9.08675C7.12616 9.20634 6.22123 10.0177 5.9683 11.1156C5.60457 12.6808 5.6001 14.3884 5.6001 16.0008C5.6001 17.6114 5.6001 19.3188 5.96356 20.8842C6.21824 21.9821 7.12168 22.7935 8.21082 22.913C10.7907 23.1996 13.4007 23.2013 15.9997 23.1996C18.5997 23.2013 21.2089 23.1996 23.7881 22.913C24.8772 22.7935 25.7804 21.9821 26.0368 20.8842C26.3988 19.3188 26.4 17.6114 26.4 16.0008C26.4 14.3899 26.4033 12.6808 26.0415 11.1156ZM13.3173 19.2062V12.3741C15.5215 13.5172 17.711 14.6515 19.9286 15.8017C17.7179 16.9405 15.5272 18.0692 13.3173 19.2062Z" fill="#616161"/>
</svg>
